<svg width="24" height="24" viewBox="0 0 24 24" fill="none" xmlns="http://www.w3.org/2000/svg">
<g clip-path="url(#clip0_713_469)">
<path d="M20.62 4.22015C20.5038 4.12618 20.3681 4.05943 20.2227 4.02482C20.0773 3.99021 19.9261 3.98861 19.78 4.02015L12 5.77015L4.22 4.00015C4.07162 3.96664 3.91756 3.96742 3.76953 4.00243C3.6215 4.03745 3.48341 4.10577 3.36577 4.20219C3.24812 4.29862 3.15403 4.42062 3.09065 4.5589C3.02726 4.69717 2.99626 4.84809 3 5.00015V17.2002C2.99435 17.4313 3.06898 17.6573 3.2112 17.8396C3.35341 18.0219 3.55442 18.1494 3.78 18.2002L11.78 20.0002H12.22L20.22 18.2002C20.4456 18.1494 20.6466 18.0219 20.7888 17.8396C20.931 17.6573 21.0056 17.4313 21 17.2002V5.00015C20.9993 4.84995 20.9648 4.70183 20.899 4.56679C20.8332 4.43176 20.7379 4.31328 20.62 4.22015ZM5 6.25015L11 7.60015V17.7502L5 16.4002V6.25015ZM19 16.4002L13 17.7502V7.60015L19 6.25015V16.4002Z" fill="white"/>
</g>
<defs>
<clipPath id="clip0_713_469">
<rect width="24" height="24" fill="white"/>
</clipPath>
</defs>
</svg>
