<?xml version="1.0" encoding="utf-8"?>
<!-- Generator: Adobe Illustrator 17.0.0, SVG Export Plug-In . SVG Version: 6.00 Build 0)  -->
<svg version="1.2" baseProfile="tiny" id="Camada_1"
	 xmlns="http://www.w3.org/2000/svg" xmlns:xlink="http://www.w3.org/1999/xlink" x="0px" y="0px" width="285.5px" height="184px"
	 viewBox="0 0 285.5 184" xml:space="preserve">
<g>
	<path fill="#FFFFFF" d="M13.354,135.765v10.141H8.943v-24.495h15.902v3.884h-11.49v6.585h10.503v3.884H13.354z"/>
	<path fill="#FFFFFF" d="M42.231,140.441c0,3.522-3.029,5.761-7.606,5.761c-4.477,0-7.671-2.436-7.671-6.683v-4.116
		c0-4.378,3.194-7.11,7.671-7.11c4.511,0,7.639,2.6,7.639,7.176v3.063H30.74v0.855c0,2.469,1.647,3.556,3.918,3.556
		c2.239,0,3.753-0.79,3.753-2.666h3.82V140.441z M38.51,135.403c0-2.469-1.449-3.818-3.852-3.818c-2.436,0-3.918,1.349-3.918,3.852
		v0.428h7.77V135.403z"/>
	<path fill="#FFFFFF" d="M46.052,145.906v-17.351h3.984v2.469l0.757-0.756c1.284-1.219,2.568-1.845,4.28-1.845h1.02v4.05h-0.988
		c-1.514,0-2.502,0.296-3.654,1.185l-1.35,1.12v11.128H46.052z"/>
	<path fill="#FFFFFF" d="M69.759,145.906v-11.392c0-1.317-0.724-2.568-2.304-2.568c-0.889,0-1.548,0.328-2.271,0.757l-2.535,1.515
		v11.688h-3.984v-17.351h3.951v2.041l1.844-1.119c1.317-0.823,2.534-1.086,3.852-1.12c3.391,0,5.465,2.273,5.465,5.631v11.918
		H69.759z"/>
	<path fill="#FFFFFF" d="M88.726,145.906v-2.009l-1.811,0.988c-1.613,0.856-2.864,1.251-4.576,1.251
		c-3.095,0-5.169-2.007-5.169-4.939c0-3.622,2.832-5.301,6.42-5.301h5.169v-1.02c0-2.239-1.284-3.326-3.556-3.326
		c-2.37,0-3.753,0.988-3.753,3.03h-3.885v-0.23c0-3.918,3.095-6.123,7.605-6.123c4.741,0,7.474,2.369,7.474,6.518v11.162H88.726z
		 M88.726,138.728h-4.609c-2.403,0-2.963,1.12-2.963,2.271c0,1.219,0.756,1.943,2.074,1.943c1.086,0,2.008-0.328,2.996-0.856
		l2.502-1.349V138.728z"/>
	<path fill="#FFFFFF" d="M107.692,145.906v-11.392c0-1.317-0.724-2.568-2.304-2.568c-0.889,0-1.548,0.328-2.271,0.757l-2.535,1.515
		v11.688h-3.984v-17.351h3.951v2.041l1.844-1.119c1.317-0.823,2.534-1.086,3.852-1.12c3.391,0,5.465,2.273,5.465,5.631v11.918
		H107.692z"/>
	<path fill="#FFFFFF" d="M127.251,145.906v-1.877l-2.008,1.087c-1.35,0.758-2.601,1.02-3.885,1.02c-3.589,0-5.959-2.403-5.959-5.925
		v-5.829c0-3.49,2.436-5.991,6.025-5.991c1.284,0,2.469,0.264,3.819,1.02l1.975,1.087v-9.087h3.918v24.495H127.251z
		 M127.218,134.152l-2.765-1.547c-0.724-0.396-1.514-0.658-2.436-0.658c-1.646,0-2.732,1.119-2.732,2.832v4.939
		c0,1.745,1.086,2.864,2.732,2.864c0.923,0,1.712-0.296,2.436-0.691l2.765-1.515V134.152z"/>
	<path fill="#FFFFFF" d="M150.596,139.19c0,4.378-3.259,7.078-7.835,7.078c-4.577,0-7.836-2.699-7.836-7.078v-3.788
		c0-4.378,3.26-7.11,7.836-7.11c4.576,0,7.835,2.732,7.835,7.11V139.19z M146.777,135.799c0-2.601-1.646-4.05-4.016-4.05
		c-2.37,0-4.017,1.449-4.017,4.05v2.996c0,2.567,1.647,4.05,4.017,4.05c2.37,0,4.016-1.449,4.016-4.05V135.799z"/>
	<path fill="#FFFFFF" d="M164.033,145.906v-24.495h10.338c4.28,0,7.671,2.634,7.671,7.572c0,4.939-3.885,7.672-7.901,7.672h-5.729
		v9.251H164.033z M173.844,132.901c2.305,0,3.853-1.481,3.853-3.95c0-2.437-1.416-3.754-3.721-3.754h-5.564v7.704H173.844z"/>
	<path fill="#FFFFFF" d="M185.206,145.906v-17.351h3.984v2.469l0.757-0.756c1.284-1.219,2.568-1.845,4.28-1.845h1.021v4.05h-0.988
		c-1.514,0-2.502,0.296-3.654,1.185l-1.35,1.12v11.128H185.206z"/>
	<path fill="#FFFFFF" d="M212.733,140.441c0,3.522-3.03,5.761-7.606,5.761c-4.477,0-7.671-2.436-7.671-6.683v-4.116
		c0-4.378,3.194-7.11,7.671-7.11c4.511,0,7.639,2.6,7.639,7.176v3.063h-11.524v0.855c0,2.469,1.647,3.556,3.918,3.556
		c2.239,0,3.754-0.79,3.754-2.666h3.819V140.441z M209.012,135.403c0-2.469-1.449-3.818-3.852-3.818
		c-2.436,0-3.918,1.349-3.918,3.852v0.428h7.77V135.403z"/>
	<path fill="#FFFFFF" d="M227.056,134.186c0-1.845-1.284-2.699-3.523-2.699c-2.238,0-3.391,0.921-3.391,2.139
		c0,3.984,10.898,0.032,10.898,7.144c0,3.392-2.931,5.401-7.507,5.401c-4.807,0-7.572-2.141-7.572-5.663v-0.198h4.016
		c0,1.843,1.318,2.699,3.622,2.699c2.272,0,3.556-0.889,3.556-2.139c0-3.59-10.898,0.066-10.898-7.146
		c0-3.424,2.864-5.431,7.375-5.431c4.773,0,7.342,2.172,7.342,5.695v0.198H227.056z"/>
	<path fill="#FFFFFF" d="M242.435,145.906c-4.017,0-6.618-2.009-6.618-5.959v-8h-2.634v-3.392h2.634v-4.708h4.082v4.708h4.807v3.392
		h-4.807v7.77c0,2.041,0.921,2.732,2.864,2.732h2.041v3.458H242.435z"/>
	<path fill="#FFFFFF" d="M262.191,140.441c0,3.522-3.03,5.761-7.606,5.761c-4.477,0-7.671-2.436-7.671-6.683v-4.116
		c0-4.378,3.194-7.11,7.671-7.11c4.511,0,7.639,2.6,7.639,7.176v3.063H250.7v0.855c0,2.469,1.647,3.556,3.918,3.556
		c2.239,0,3.753-0.79,3.753-2.666h3.82V140.441z M258.47,135.403c0-2.469-1.449-3.818-3.852-3.818c-2.436,0-3.918,1.349-3.918,3.852
		v0.428h7.77V135.403z"/>
	<path fill="#FFFFFF" d="M276.514,134.186c0-1.845-1.284-2.699-3.523-2.699c-2.238,0-3.391,0.921-3.391,2.139
		c0,3.984,10.898,0.032,10.898,7.144c0,3.392-2.931,5.401-7.507,5.401c-4.807,0-7.572-2.141-7.572-5.663v-0.198h4.016
		c0,1.843,1.318,2.699,3.622,2.699c2.272,0,3.556-0.889,3.556-2.139c0-3.59-10.898,0.066-10.898-7.146
		c0-3.424,2.864-5.431,7.375-5.431c4.774,0,7.342,2.172,7.342,5.695v0.198H276.514z"/>
	<path fill="#FFFFFF" d="M177.374,165.37c0-2.21-1.3-3.197-3.795-3.197c-2.418,0-3.717,1.014-3.717,2.703
		c0,4.602,11.178,0.625,11.178,8.318c0,3.588-2.859,5.824-7.487,5.824c-4.627,0-7.487-1.95-7.487-5.98v-0.208h3.536
		c0,2.21,1.43,3.224,4.003,3.224c2.547,0,3.899-1.041,3.899-2.677c0-4.549-11.178-0.625-11.178-8.398
		c0-3.561,2.807-5.797,7.278-5.797c4.523,0,7.33,1.899,7.33,5.954v0.234H177.374z"/>
	<path fill="#FFFFFF" d="M196.117,173.532c0,3.456-2.573,5.589-6.187,5.589c-3.613,0-6.187-2.133-6.187-5.589v-2.99
		c0-3.456,2.574-5.614,6.187-5.614c3.613,0,6.187,2.158,6.187,5.614V173.532z M193.102,170.855c0-2.055-1.3-3.199-3.172-3.199
		c-1.871,0-3.171,1.144-3.171,3.199v2.364c0,2.028,1.3,3.199,3.171,3.199c1.872,0,3.172-1.144,3.172-3.199V170.855z"/>
	<path fill="#FFFFFF" d="M199.108,178.835v-13.699h3.145v1.95l0.598-0.599c1.014-0.961,2.028-1.455,3.379-1.455h0.807v3.197h-0.78
		c-1.196,0-1.976,0.235-2.886,0.936l-1.065,0.885v8.786H199.108z"/>
	<path fill="#FFFFFF" d="M221.152,173.532c0,3.456-2.574,5.589-6.188,5.589c-3.613,0-6.187-2.133-6.187-5.589v-2.99
		c0-3.456,2.574-5.614,6.187-5.614c3.613,0,6.188,2.158,6.188,5.614V173.532z M218.136,170.855c0-2.055-1.3-3.199-3.172-3.199
		c-1.871,0-3.171,1.144-3.171,3.199v2.364c0,2.028,1.3,3.199,3.171,3.199c1.872,0,3.172-1.144,3.172-3.199V170.855z"/>
	<path fill="#FFFFFF" d="M235.683,173.844c0,3.431-2.365,5.225-5.926,5.225c-3.536,0-5.902-1.95-5.902-5.355v-3.405
		c0-3.405,2.366-5.38,5.902-5.38c3.561,0,5.926,1.819,5.926,5.25v0.235h-3.041c0-1.95-1.066-2.757-2.885-2.757
		c-1.794,0-2.834,0.936-2.834,2.913v2.859c0,1.977,1.04,2.911,2.834,2.911c1.819,0,2.885-0.779,2.885-2.728h3.041V173.844z"/>
	<path fill="#FFFFFF" d="M247.174,178.835v-1.586l-1.429,0.78c-1.274,0.675-2.262,0.988-3.613,0.988
		c-2.444,0-4.081-1.586-4.081-3.899c0-2.86,2.236-4.186,5.069-4.186h4.081v-0.806c0-1.769-1.014-2.627-2.808-2.627
		c-1.871,0-2.964,0.78-2.964,2.391h-3.067v-0.181c0-3.094,2.443-4.835,6.005-4.835c3.743,0,5.901,1.872,5.901,5.147v8.813H247.174z
		 M247.174,173.168h-3.639c-1.898,0-2.34,0.883-2.34,1.792c0,0.963,0.598,1.535,1.638,1.535c0.858,0,1.586-0.261,2.366-0.677
		l1.975-1.065V173.168z"/>
	<path fill="#FFFFFF" d="M256.454,177.379v1.455h-3.068v-19.34h3.094v7.174l1.56-0.858c1.065-0.598,2.054-0.806,3.068-0.806
		c2.833,0,4.731,1.897,4.731,4.705v4.6c0,2.757-1.95,4.707-4.784,4.707c-0.988,0-1.95-0.208-3.015-0.807L256.454,177.379z
		 M262.719,170.049c0-1.352-0.832-2.236-2.132-2.236c-0.728,0-1.351,0.208-1.924,0.52l-2.157,1.222v4.913l2.157,1.195
		c0.572,0.311,1.196,0.547,1.924,0.547c1.3,0,2.132-0.885,2.132-2.263V170.049z"/>
	<path fill="#FFFFFF" d="M277.406,178.835v-1.586l-1.429,0.78c-1.275,0.675-2.262,0.988-3.613,0.988
		c-2.444,0-4.081-1.586-4.081-3.899c0-2.86,2.236-4.186,5.069-4.186h4.081v-0.806c0-1.769-1.014-2.627-2.808-2.627
		c-1.871,0-2.964,0.78-2.964,2.391h-3.067v-0.181c0-3.094,2.443-4.835,6.005-4.835c3.743,0,5.901,1.872,5.901,5.147v8.813H277.406z
		 M277.406,173.168h-3.639c-1.898,0-2.34,0.883-2.34,1.792c0,0.963,0.597,1.535,1.637,1.535c0.858,0,1.586-0.261,2.366-0.677
		l1.975-1.065V173.168z"/>
</g>
<path fill="#FFFFFF" d="M2.844,105.458V2.41h68.44v16.346H21.278v26.311h44.739v16.346H21.278v27.56h50.27v16.485H2.844z"/>
<path fill="#FFFFFF" d="M119.105,105.458c-16.898,0-27.838-8.449-27.838-25.065v-33.66h-11.07V32.472h11.07V12.663h17.179v19.809
	h20.215v14.261h-20.215v32.692c0,8.577,3.882,11.495,12.057,11.495h8.584v14.538H119.105z"/>
<path fill="#FFFFFF" d="M202.239,82.471c0,14.816-12.734,24.233-31.994,24.233c-18.834,0-32.265-10.25-32.265-28.119V61.278
	c0-18.424,13.431-29.926,32.265-29.926c18.983,0,32.126,10.95,32.126,30.2v12.883h-48.472v3.602
	c0,10.392,6.932,14.958,16.481,14.958c9.427,0,15.787-3.327,15.787-11.224h16.072V82.471z M186.587,61.278
	c0-10.395-6.09-16.075-16.207-16.075c-10.256,0-16.481,5.68-16.481,16.21v1.801h32.688V61.278z"/>
<path fill="#FFFFFF" d="M279.857,78.872c0,18.272-12.605,27.831-31.59,27.831c-18.841,0-31.432-10.385-31.432-28.532V60.029
	c0-18.14,12.592-28.677,31.432-28.677c18.984,0,31.59,9.698,31.59,27.983v1.249h-16.2c0-10.388-5.687-14.68-15.39-14.68
	c-9.556,0-15.097,4.979-15.097,15.51v15.229c0,10.534,5.541,15.52,15.097,15.52c9.703,0,15.39-4.16,15.39-14.542h16.2V78.872z"/>
</svg>
